<mxfile host="app.diagrams.net" agent="Mozilla/5.0 (Windows NT 10.0; Win64; x64; rv:137.0) Gecko/20100101 Firefox/137.0" version="26.2.12">
  <diagram name="Page-1" id="-RDQrTWFiyxEshUr6_JO">
    <mxGraphModel dx="1428" dy="723" grid="1" gridSize="10" guides="1" tooltips="1" connect="1" arrows="1" fold="1" page="1" pageScale="1" pageWidth="850" pageHeight="1100" math="0" shadow="0">
      <root>
        <mxCell id="0" />
        <mxCell id="1" parent="0" />
        <mxCell id="6W3W0GryK70y7oGCvisQ-53" value="" style="rounded=0;whiteSpace=wrap;html=1;" parent="1" vertex="1">
          <mxGeometry x="1290" y="110" width="300" height="360" as="geometry" />
        </mxCell>
        <mxCell id="6W3W0GryK70y7oGCvisQ-46" value="" style="rounded=0;whiteSpace=wrap;html=1;" parent="1" vertex="1">
          <mxGeometry x="390" y="110" width="830" height="730" as="geometry" />
        </mxCell>
        <mxCell id="6W3W0GryK70y7oGCvisQ-13" value="" style="rounded=0;whiteSpace=wrap;html=1;" parent="1" vertex="1">
          <mxGeometry x="30" y="110" width="330" height="420" as="geometry" />
        </mxCell>
        <mxCell id="6W3W0GryK70y7oGCvisQ-2" style="edgeStyle=orthogonalEdgeStyle;rounded=0;orthogonalLoop=1;jettySize=auto;html=1;" parent="1" source="6W3W0GryK70y7oGCvisQ-1" edge="1">
          <mxGeometry relative="1" as="geometry">
            <mxPoint x="190" y="320" as="targetPoint" />
          </mxGeometry>
        </mxCell>
        <mxCell id="6W3W0GryK70y7oGCvisQ-1" value="every unpause" style="ellipse;whiteSpace=wrap;html=1;" parent="1" vertex="1">
          <mxGeometry x="130" y="170" width="120" height="80" as="geometry" />
        </mxCell>
        <mxCell id="6W3W0GryK70y7oGCvisQ-4" style="edgeStyle=orthogonalEdgeStyle;rounded=0;orthogonalLoop=1;jettySize=auto;html=1;" parent="1" source="6W3W0GryK70y7oGCvisQ-3" edge="1">
          <mxGeometry relative="1" as="geometry">
            <mxPoint x="190" y="430" as="targetPoint" />
          </mxGeometry>
        </mxCell>
        <mxCell id="6W3W0GryK70y7oGCvisQ-3" value="get all drop pods" style="rounded=0;whiteSpace=wrap;html=1;" parent="1" vertex="1">
          <mxGeometry x="130" y="320" width="120" height="60" as="geometry" />
        </mxCell>
        <mxCell id="6W3W0GryK70y7oGCvisQ-16" style="edgeStyle=orthogonalEdgeStyle;rounded=0;orthogonalLoop=1;jettySize=auto;html=1;" parent="1" source="6W3W0GryK70y7oGCvisQ-12" edge="1">
          <mxGeometry relative="1" as="geometry">
            <mxPoint x="530" y="320" as="targetPoint" />
          </mxGeometry>
        </mxCell>
        <mxCell id="6W3W0GryK70y7oGCvisQ-12" value="Message received" style="ellipse;whiteSpace=wrap;html=1;" parent="1" vertex="1">
          <mxGeometry x="470" y="170" width="120" height="80" as="geometry" />
        </mxCell>
        <mxCell id="6W3W0GryK70y7oGCvisQ-14" value="Client / server" style="text;html=1;align=center;verticalAlign=middle;whiteSpace=wrap;rounded=0;" parent="1" vertex="1">
          <mxGeometry x="40" y="120" width="80" height="30" as="geometry" />
        </mxCell>
        <mxCell id="6W3W0GryK70y7oGCvisQ-15" value="send to server for analysis" style="ellipse;whiteSpace=wrap;html=1;" parent="1" vertex="1">
          <mxGeometry x="130" y="430" width="120" height="80" as="geometry" />
        </mxCell>
        <mxCell id="6W3W0GryK70y7oGCvisQ-20" style="edgeStyle=orthogonalEdgeStyle;rounded=0;orthogonalLoop=1;jettySize=auto;html=1;" parent="1" source="6W3W0GryK70y7oGCvisQ-19" edge="1">
          <mxGeometry relative="1" as="geometry">
            <mxPoint x="890" y="385" as="targetPoint" />
          </mxGeometry>
        </mxCell>
        <mxCell id="6W3W0GryK70y7oGCvisQ-21" style="edgeStyle=orthogonalEdgeStyle;rounded=0;orthogonalLoop=1;jettySize=auto;html=1;" parent="1" source="6W3W0GryK70y7oGCvisQ-19" edge="1">
          <mxGeometry relative="1" as="geometry">
            <mxPoint x="530" y="540" as="targetPoint" />
          </mxGeometry>
        </mxCell>
        <mxCell id="6W3W0GryK70y7oGCvisQ-19" value="are all the id also on the server" style="rhombus;whiteSpace=wrap;html=1;" parent="1" vertex="1">
          <mxGeometry x="455" y="320" width="150" height="130" as="geometry" />
        </mxCell>
        <mxCell id="6W3W0GryK70y7oGCvisQ-23" value="yes" style="text;html=1;align=center;verticalAlign=middle;whiteSpace=wrap;rounded=0;" parent="1" vertex="1">
          <mxGeometry x="620" y="350" width="60" height="30" as="geometry" />
        </mxCell>
        <mxCell id="6W3W0GryK70y7oGCvisQ-24" value="no" style="text;html=1;align=center;verticalAlign=middle;resizable=0;points=[];autosize=1;strokeColor=none;fillColor=none;" parent="1" vertex="1">
          <mxGeometry x="460" y="458" width="40" height="30" as="geometry" />
        </mxCell>
        <mxCell id="6W3W0GryK70y7oGCvisQ-31" style="edgeStyle=orthogonalEdgeStyle;rounded=0;orthogonalLoop=1;jettySize=auto;html=1;" parent="1" source="6W3W0GryK70y7oGCvisQ-25" edge="1">
          <mxGeometry relative="1" as="geometry">
            <mxPoint x="530" y="720" as="targetPoint" />
          </mxGeometry>
        </mxCell>
        <mxCell id="6W3W0GryK70y7oGCvisQ-25" value="is the id missing or new" style="rhombus;whiteSpace=wrap;html=1;" parent="1" vertex="1">
          <mxGeometry x="490" y="540" width="80" height="80" as="geometry" />
        </mxCell>
        <mxCell id="6W3W0GryK70y7oGCvisQ-27" value="new" style="text;html=1;align=center;verticalAlign=middle;resizable=0;points=[];autosize=1;strokeColor=none;fillColor=none;" parent="1" vertex="1">
          <mxGeometry x="615" y="548" width="50" height="30" as="geometry" />
        </mxCell>
        <mxCell id="6W3W0GryK70y7oGCvisQ-30" value="send to everyone but sender order to create said new entity" style="ellipse;whiteSpace=wrap;html=1;" parent="1" vertex="1">
          <mxGeometry x="680" y="548" width="120" height="80" as="geometry" />
        </mxCell>
        <mxCell id="6W3W0GryK70y7oGCvisQ-32" value="missing" style="text;html=1;align=center;verticalAlign=middle;resizable=0;points=[];autosize=1;strokeColor=none;fillColor=none;" parent="1" vertex="1">
          <mxGeometry x="440" y="610" width="60" height="30" as="geometry" />
        </mxCell>
        <mxCell id="6W3W0GryK70y7oGCvisQ-33" value="send order to everyone but sender to remove the entity" style="ellipse;whiteSpace=wrap;html=1;" parent="1" vertex="1">
          <mxGeometry x="470" y="720" width="120" height="80" as="geometry" />
        </mxCell>
        <mxCell id="6W3W0GryK70y7oGCvisQ-35" style="edgeStyle=orthogonalEdgeStyle;rounded=0;orthogonalLoop=1;jettySize=auto;html=1;" parent="1" source="6W3W0GryK70y7oGCvisQ-34" edge="1">
          <mxGeometry relative="1" as="geometry">
            <mxPoint x="950" y="520" as="targetPoint" />
          </mxGeometry>
        </mxCell>
        <mxCell id="6W3W0GryK70y7oGCvisQ-34" value="create checksum using the same formula as client" style="rounded=0;whiteSpace=wrap;html=1;" parent="1" vertex="1">
          <mxGeometry x="890" y="355" width="120" height="60" as="geometry" />
        </mxCell>
        <mxCell id="6W3W0GryK70y7oGCvisQ-37" style="edgeStyle=orthogonalEdgeStyle;rounded=0;orthogonalLoop=1;jettySize=auto;html=1;" parent="1" source="6W3W0GryK70y7oGCvisQ-36" edge="1">
          <mxGeometry relative="1" as="geometry">
            <mxPoint x="1070" y="563" as="targetPoint" />
          </mxGeometry>
        </mxCell>
        <mxCell id="6W3W0GryK70y7oGCvisQ-40" style="edgeStyle=orthogonalEdgeStyle;rounded=0;orthogonalLoop=1;jettySize=auto;html=1;" parent="1" source="6W3W0GryK70y7oGCvisQ-36" edge="1">
          <mxGeometry relative="1" as="geometry">
            <mxPoint x="950" y="720" as="targetPoint" />
          </mxGeometry>
        </mxCell>
        <mxCell id="6W3W0GryK70y7oGCvisQ-36" value="checksum match" style="rhombus;whiteSpace=wrap;html=1;" parent="1" vertex="1">
          <mxGeometry x="910" y="523" width="80" height="80" as="geometry" />
        </mxCell>
        <mxCell id="6W3W0GryK70y7oGCvisQ-38" value="yes" style="text;html=1;align=center;verticalAlign=middle;resizable=0;points=[];autosize=1;strokeColor=none;fillColor=none;" parent="1" vertex="1">
          <mxGeometry x="1010" y="518" width="40" height="30" as="geometry" />
        </mxCell>
        <mxCell id="6W3W0GryK70y7oGCvisQ-39" value="do nothing" style="ellipse;whiteSpace=wrap;html=1;" parent="1" vertex="1">
          <mxGeometry x="1070" y="523" width="120" height="80" as="geometry" />
        </mxCell>
        <mxCell id="6W3W0GryK70y7oGCvisQ-41" value="no" style="text;html=1;align=center;verticalAlign=middle;resizable=0;points=[];autosize=1;strokeColor=none;fillColor=none;" parent="1" vertex="1">
          <mxGeometry x="900" y="600" width="40" height="30" as="geometry" />
        </mxCell>
        <mxCell id="6W3W0GryK70y7oGCvisQ-45" value="broadcast to everyone but sender the new data" style="ellipse;whiteSpace=wrap;html=1;" parent="1" vertex="1">
          <mxGeometry x="890" y="720" width="120" height="80" as="geometry" />
        </mxCell>
        <mxCell id="6W3W0GryK70y7oGCvisQ-47" value="Server side" style="text;html=1;align=center;verticalAlign=middle;whiteSpace=wrap;rounded=0;" parent="1" vertex="1">
          <mxGeometry x="390" y="110" width="70" height="30" as="geometry" />
        </mxCell>
        <mxCell id="6W3W0GryK70y7oGCvisQ-26" style="edgeStyle=orthogonalEdgeStyle;rounded=0;orthogonalLoop=1;jettySize=auto;html=1;" parent="1" source="6W3W0GryK70y7oGCvisQ-25" edge="1">
          <mxGeometry relative="1" as="geometry">
            <mxPoint x="680" y="580" as="targetPoint" />
          </mxGeometry>
        </mxCell>
        <mxCell id="6W3W0GryK70y7oGCvisQ-51" style="edgeStyle=orthogonalEdgeStyle;rounded=0;orthogonalLoop=1;jettySize=auto;html=1;" parent="1" source="6W3W0GryK70y7oGCvisQ-50" edge="1">
          <mxGeometry relative="1" as="geometry">
            <mxPoint x="1440" y="330" as="targetPoint" />
          </mxGeometry>
        </mxCell>
        <mxCell id="6W3W0GryK70y7oGCvisQ-50" value="update Request received" style="ellipse;whiteSpace=wrap;html=1;" parent="1" vertex="1">
          <mxGeometry x="1380" y="170" width="120" height="80" as="geometry" />
        </mxCell>
        <mxCell id="6W3W0GryK70y7oGCvisQ-52" value="Create / update / remove entity with new data" style="ellipse;whiteSpace=wrap;html=1;" parent="1" vertex="1">
          <mxGeometry x="1380" y="335" width="120" height="80" as="geometry" />
        </mxCell>
        <mxCell id="6W3W0GryK70y7oGCvisQ-54" value="client / server" style="text;html=1;align=center;verticalAlign=middle;whiteSpace=wrap;rounded=0;" parent="1" vertex="1">
          <mxGeometry x="1310" y="120" width="60" height="30" as="geometry" />
        </mxCell>
      </root>
    </mxGraphModel>
  </diagram>
</mxfile>
